<svg width="592" height="642" viewBox="0 0 592 642" fill="none" xmlns="http://www.w3.org/2000/svg">
<path d="M164.37 0H147.931V16.439H164.37V0Z" fill="white"/>
<path d="M180.809 0H164.37V16.439H180.809V0Z" fill="white"/>
<path d="M197.247 0H180.809V16.439H197.247V0Z" fill="white"/>
<path d="M213.686 0H197.247V16.439H213.686V0Z" fill="white"/>
<path d="M230.125 0H213.686V16.439H230.125V0Z" fill="white"/>
<path d="M246.564 0H230.125V16.439H246.564V0Z" fill="white"/>
<path d="M443.812 0H427.373V16.439H443.812V0Z" fill="white"/>
<path d="M460.251 0H443.812V16.439H460.251V0Z" fill="white"/>
<path d="M476.69 0H460.251V16.439H476.69V0Z" fill="white"/>
<path d="M493.129 0H476.69V16.439H493.129V0Z" fill="white"/>
<path d="M509.558 0H493.119V16.439H509.558V0Z" fill="white"/>
<path d="M525.997 0H509.558V16.439H525.997V0Z" fill="white"/>
<path d="M542.436 0H525.997V16.439H542.436V0Z" fill="white"/>
<path d="M131.502 16.4385H115.063V32.8774H131.502V16.4385Z" fill="white"/>
<path d="M147.931 16.439L131.492 16.4385V32.8774H147.931L147.931 16.439Z" fill="white"/>
<path d="M262.993 16.4385H246.554V32.8774H262.993V16.4385Z" fill="white"/>
<path d="M328.749 16.4385H312.31V32.8774H328.749V16.4385Z" fill="white"/>
<path d="M345.188 16.4385H328.749V32.8774H345.188V16.4385Z" fill="white"/>
<path d="M361.627 16.4385H345.188V32.8774H361.627V16.4385Z" fill="white"/>
<path d="M378.056 16.4385H361.617V32.8774H378.056V16.4385Z" fill="white"/>
<path d="M427.373 16.439L410.934 16.4385V32.8774H427.373V16.439Z" fill="white"/>
<path d="M558.875 16.4385L542.436 16.439V32.8774H558.875V16.4385Z" fill="white"/>
<path d="M131.502 32.8774H115.063V49.3169H131.502V32.8774Z" fill="white"/>
<path d="M197.247 32.8779H180.809V49.3169H197.247V32.8779Z" fill="white"/>
<path d="M213.686 32.8779H197.247V49.3169H213.686V32.8779Z" fill="white"/>
<path d="M279.432 32.8779L262.993 32.8774L262.993 49.3169H279.432V32.8779Z" fill="white"/>
<path d="M295.871 32.8779H279.432V49.3169H295.871V32.8779Z" fill="white"/>
<path d="M312.31 32.8774L295.871 32.8779V49.3169H312.31L312.31 32.8774Z" fill="white"/>
<path d="M394.495 32.8779L378.056 32.8774L378.056 49.3169H394.495V32.8779Z" fill="white"/>
<path d="M410.934 32.8774L394.495 32.8779V49.3169H410.934V32.8774Z" fill="white"/>
<path d="M476.69 32.8779H460.251V49.3169H476.69V32.8779Z" fill="white"/>
<path d="M493.129 32.8779H476.69V49.3169H493.129V32.8779Z" fill="white"/>
<path d="M558.875 32.8774H542.436V49.3169H558.875V32.8774Z" fill="white"/>
<path d="M131.502 49.3169H115.063V65.7554H131.502V49.3169Z" fill="white"/>
<path d="M164.37 49.3164H147.931V65.7554H164.37V49.3164Z" fill="white"/>
<path d="M180.809 49.3169L164.37 49.3164V65.7554H180.809L180.809 49.3169Z" fill="white"/>
<path d="M230.125 49.3164L213.686 49.3169L213.686 65.7554H230.125V49.3164Z" fill="white"/>
<path d="M460.251 49.3169L443.812 49.3164V65.7554H460.251L460.251 49.3169Z" fill="white"/>
<path d="M509.558 49.3164H493.119V65.7554H509.558V49.3164Z" fill="white"/>
<path d="M525.997 49.3164H509.558V65.7554H525.997V49.3164Z" fill="white"/>
<path d="M575.314 49.3164L558.875 49.3169V65.7554H575.314V49.3164Z" fill="white"/>
<path d="M115.063 65.7554L98.6237 65.7559V82.1948H115.063L115.063 65.7554Z" fill="white"/>
<path d="M164.37 65.7554H147.931V82.1948H164.37V65.7554Z" fill="white"/>
<path d="M525.997 65.7554H509.558V82.1948H525.997V65.7554Z" fill="white"/>
<path d="M575.314 65.7554H558.875V82.1948H575.314V65.7554Z" fill="white"/>
<path d="M115.063 82.1846H98.6237V98.6235H115.063V82.1846Z" fill="white"/>
<path d="M164.37 82.1846H147.931V98.6235H164.37V82.1846Z" fill="white"/>
<path d="M525.997 82.1846H509.558V98.6235H525.997V82.1846Z" fill="white"/>
<path d="M575.314 82.1846H558.875V98.6235H575.314V82.1846Z" fill="white"/>
<path d="M115.063 98.6235H98.6237V115.062H115.063V98.6235Z" fill="white"/>
<path d="M164.37 98.6235H147.931V115.062H164.37V98.6235Z" fill="white"/>
<path d="M525.997 98.6235H509.558V115.062H525.997V98.6235Z" fill="white"/>
<path d="M575.314 98.6235H558.875V115.062H575.314V98.6235Z" fill="white"/>
<path d="M115.063 115.062H98.6237V131.501H115.063V115.062Z" fill="white"/>
<path d="M131.502 115.062L115.063 115.062V131.501H131.502V115.062Z" fill="white"/>
<path d="M164.37 115.062H147.931V131.501H164.37V115.062Z" fill="white"/>
<path d="M525.997 115.062H509.558V131.501H525.997V115.062Z" fill="white"/>
<path d="M575.314 115.062H558.875V131.501H575.314V115.062Z" fill="white"/>
<path d="M131.502 131.501H115.063L115.063 147.94H131.502V131.501Z" fill="white"/>
<path d="M180.809 131.501L164.37 131.501V147.94H180.809V131.501Z" fill="white"/>
<path d="M509.558 131.501L493.119 131.501V147.94H509.558V131.501Z" fill="white"/>
<path d="M558.875 131.501L542.436 131.501V147.94H558.875V131.501Z" fill="white"/>
<path d="M575.314 131.501H558.875V147.94H575.314V131.501Z" fill="white"/>
<path d="M131.502 147.94H115.063V164.379H131.502V147.94Z" fill="white"/>
<path d="M147.931 147.94H131.492V164.379H147.931V147.94Z" fill="white"/>
<path d="M262.993 147.94H246.554V164.379H262.993V147.94Z" fill="white"/>
<path d="M279.432 147.94H262.993V164.379H279.432V147.94Z" fill="white"/>
<path d="M410.934 147.94H394.495V164.379H410.934V147.94Z" fill="white"/>
<path d="M427.373 147.94H410.934V164.379H427.373V147.94Z" fill="white"/>
<path d="M558.875 147.94H542.436V164.379H558.875V147.94Z" fill="white"/>
<path d="M147.931 164.379H131.492V180.818H147.931V164.379Z" fill="white"/>
<path d="M164.37 164.379L147.931 164.379V180.818H164.37V164.379Z" fill="white"/>
<path d="M262.993 164.379H246.554V180.818H262.993V164.379Z" fill="white"/>
<path d="M279.432 164.379H262.993V180.818H279.432V164.379Z" fill="white"/>
<path d="M328.749 164.379H312.31V180.818H328.749V164.379Z" fill="white"/>
<path d="M345.188 164.379H328.749V180.818H345.188V164.379Z" fill="white"/>
<path d="M361.627 164.379H345.188V180.818H361.627V164.379Z" fill="white"/>
<path d="M410.934 164.379H394.495V180.818H410.934V164.379Z" fill="white"/>
<path d="M427.373 164.379H410.934V180.818H427.373V164.379Z" fill="white"/>
<path d="M525.997 164.379H509.558V180.818H525.997V164.379Z" fill="white"/>
<path d="M542.436 164.379L525.997 164.379V180.818H542.436V164.379Z" fill="white"/>
<path d="M180.809 180.818L164.37 180.818V197.257H180.809V180.818Z" fill="white"/>
<path d="M197.247 180.818H180.809V197.257H197.247V180.818Z" fill="white"/>
<path d="M312.31 180.818L295.871 180.818V197.257H312.31L312.31 180.818Z" fill="white"/>
<path d="M378.056 180.818H361.617V197.257H378.056V180.818Z" fill="white"/>
<path d="M493.129 180.818H476.69V197.257H493.129V180.818Z" fill="white"/>
<path d="M509.558 180.818L493.119 180.818V197.257H509.558V180.818Z" fill="white"/>
<path d="M525.997 180.818H509.558V197.257H525.997V180.818Z" fill="white"/>
<path d="M213.686 197.247H197.247V213.686H213.686V197.247Z" fill="white"/>
<path d="M312.31 197.247H295.871V213.686H312.31V197.247Z" fill="white"/>
<path d="M378.056 197.247H361.617V213.686H378.056V197.247Z" fill="white"/>
<path d="M493.129 197.247H476.69V213.686H493.129V197.247Z" fill="white"/>
<path d="M213.686 213.686H197.247V230.125H213.686V213.686Z" fill="white"/>
<path d="M312.31 213.686H295.871V230.125H312.31V213.686Z" fill="white"/>
<path d="M378.056 213.686H361.617V230.125H378.056V213.686Z" fill="white"/>
<path d="M493.129 213.686H476.69V230.125H493.129V213.686Z" fill="white"/>
<path d="M180.809 230.125H164.37V246.564H180.809V230.125Z" fill="white"/>
<path d="M197.247 230.125L180.809 230.125V246.564H197.247L197.247 230.125Z" fill="white"/>
<path d="M213.686 230.125H197.247L197.247 246.564H213.686V230.125Z" fill="white"/>
<path d="M312.31 230.125H295.871V246.564H312.31V230.125Z" fill="white"/>
<path d="M328.749 230.125L312.31 230.125V246.564H328.749V230.125Z" fill="white"/>
<path d="M361.627 230.125H345.188V246.564H361.627V230.125Z" fill="white"/>
<path d="M378.056 230.125H361.617V246.564H378.056V230.125Z" fill="white"/>
<path d="M476.69 230.125L460.251 230.125V246.564H476.69L476.69 230.125Z" fill="white"/>
<path d="M558.875 230.125H542.436V246.564H558.875V230.125Z" fill="white"/>
<path d="M575.314 230.125H558.875V246.564H575.314V230.125Z" fill="white"/>
<path d="M591.752 230.125H575.314V246.564H591.752V230.125Z" fill="white"/>
<path d="M164.37 246.564L147.931 246.564V263.003H164.37V246.564Z" fill="white"/>
<path d="M230.125 246.564L213.686 246.564L213.686 263.003H230.125V246.564Z" fill="white"/>
<path d="M328.749 246.564H312.31L312.31 263.003H328.749V246.564Z" fill="white"/>
<path d="M345.188 246.564H328.749V263.003H345.188L345.188 246.564Z" fill="white"/>
<path d="M361.627 246.564H345.188L345.188 263.003H361.627V246.564Z" fill="white"/>
<path d="M476.69 246.564H460.251V263.003H476.69V246.564Z" fill="white"/>
<path d="M558.875 246.564H542.436V263.003H558.875V246.564Z" fill="white"/>
<path d="M591.752 246.564H575.314L575.313 263.003H591.752V246.564Z" fill="white"/>
<path d="M147.931 263.003L131.492 263.003V279.442H147.931L147.931 263.003Z" fill="white"/>
<path d="M230.125 263.003H213.686V279.442H230.125V263.003Z" fill="white"/>
<path d="M246.564 263.003L230.125 263.003V279.442H246.564V263.003Z" fill="white"/>
<path d="M460.251 263.003L443.812 263.003V279.442H460.251L460.251 263.003Z" fill="white"/>
<path d="M542.436 263.003L525.997 263.003V279.442H542.436V263.003Z" fill="white"/>
<path d="M591.752 263.003H575.313V279.442H591.752V263.003Z" fill="white"/>
<path d="M131.502 279.442H115.063V295.881H131.502V279.442Z" fill="white"/>
<path d="M246.564 279.442H230.125L230.125 295.881H246.564V279.442Z" fill="white"/>
<path d="M262.993 279.442H246.554V295.881H262.993V279.442Z" fill="white"/>
<path d="M443.812 279.442L427.373 279.442V295.881H443.812L443.812 279.442Z" fill="white"/>
<path d="M542.436 279.442H525.997V295.881H542.436V279.442Z" fill="white"/>
<path d="M591.752 279.442H575.313V295.881H591.752V279.442Z" fill="white"/>
<path d="M115.063 295.881L98.6237 295.881V312.32H115.063L115.063 295.881Z" fill="white"/>
<path d="M279.432 295.881L262.993 295.881L262.993 312.32H279.432V295.881Z" fill="white"/>
<path d="M295.871 295.881H279.432V312.32H295.871V295.881Z" fill="white"/>
<path d="M312.31 295.881H295.871V312.32H312.31V295.881Z" fill="white"/>
<path d="M394.495 295.881H378.056V312.32H394.495V295.881Z" fill="white"/>
<path d="M410.934 295.881H394.495V312.32H410.934V295.881Z" fill="white"/>
<path d="M427.373 295.881L410.934 295.881V312.32H427.373V295.881Z" fill="white"/>
<path d="M542.436 295.881H525.997V312.32H542.436V295.881Z" fill="white"/>
<path d="M591.752 295.881H575.313V312.32H591.752V295.881Z" fill="white"/>
<path d="M98.6237 312.31H82.1848V328.749H98.6237V312.31Z" fill="white"/>
<path d="M312.31 312.31H295.871V328.749H312.31V312.31Z" fill="white"/>
<path d="M328.749 312.31H312.31V328.749H328.749V312.31Z" fill="white"/>
<path d="M345.188 312.31H328.749V328.749H345.188V312.31Z" fill="white"/>
<path d="M361.627 312.31H345.188V328.749H361.627V312.31Z" fill="white"/>
<path d="M378.056 312.31H361.617V328.749H378.056V312.31Z" fill="white"/>
<path d="M394.495 312.31H378.056V328.749H394.495V312.31Z" fill="white"/>
<path d="M410.934 312.31H394.495V328.749H410.934V312.31Z" fill="white"/>
<path d="M525.997 312.31H509.558V328.749H525.997V312.31Z" fill="white"/>
<path d="M575.314 312.31H558.875V328.749H575.314V312.31Z" fill="white"/>
<path d="M82.1848 328.749L65.7458 328.749V345.188H82.1848V328.749Z" fill="white"/>
<path d="M378.056 328.749H361.617V345.188H378.056V328.749Z" fill="white"/>
<path d="M410.934 328.749H394.495V345.188H410.934V328.749Z" fill="white"/>
<path d="M427.373 328.749L410.934 328.749V345.188H427.373V328.749Z" fill="white"/>
<path d="M525.997 328.749H509.558V345.188H525.997V328.749Z" fill="white"/>
<path d="M575.314 328.749H558.875V345.188H575.314V328.749Z" fill="white"/>
<path d="M65.7458 345.188L49.3069 345.188V361.626H65.7458L65.7458 345.188Z" fill="white"/>
<path d="M378.056 345.188H361.617V361.626H378.056V345.188Z" fill="white"/>
<path d="M427.373 345.188H410.934V361.626H427.373V345.188Z" fill="white"/>
<path d="M443.812 345.188L427.373 345.188V361.626H443.812V345.188Z" fill="white"/>
<path d="M460.251 345.188H443.812V361.626H460.251V345.188Z" fill="white"/>
<path d="M509.558 345.188L493.119 345.188V361.626H509.558V345.188Z" fill="white"/>
<path d="M525.997 345.188H509.558V361.626H525.997V345.188Z" fill="white"/>
<path d="M575.314 345.188H558.875V361.626H575.314V345.188Z" fill="white"/>
<path d="M49.3069 361.626L32.8679 361.627V378.066H49.3069L49.3069 361.626Z" fill="white"/>
<path d="M394.495 361.627L378.056 361.626L378.056 378.066H394.495V361.627Z" fill="white"/>
<path d="M460.251 361.626H443.812L443.812 378.066H460.251V361.626Z" fill="white"/>
<path d="M476.69 361.627L460.251 361.626V378.066H476.69V361.627Z" fill="white"/>
<path d="M493.129 361.627H476.69V378.066H493.129V361.627Z" fill="white"/>
<path d="M509.558 361.626H493.119V378.066H509.558V361.626Z" fill="white"/>
<path d="M575.314 361.626H558.875V378.066H575.314V361.626Z" fill="white"/>
<path d="M32.8679 378.066L16.429 378.065V394.504H32.8679L32.8679 378.066Z" fill="white"/>
<path d="M410.934 378.065L394.495 378.066V394.504H410.934V378.065Z" fill="white"/>
<path d="M509.558 378.066H493.119V394.504H509.558V378.066Z" fill="white"/>
<path d="M575.314 378.066H558.875V394.504H575.314V378.066Z" fill="white"/>
<path d="M32.8679 394.504H16.429V410.944H32.8679V394.504Z" fill="white"/>
<path d="M427.373 394.505L410.934 394.504V410.944H427.373V394.505Z" fill="white"/>
<path d="M509.558 394.504H493.119V410.944H509.558V394.504Z" fill="white"/>
<path d="M558.875 394.504L542.436 394.505V410.944H558.875V394.504Z" fill="white"/>
<path d="M575.314 394.504H558.875V410.944H575.314V394.504Z" fill="white"/>
<path d="M16.439 410.943H0V427.382H16.439V410.943Z" fill="white"/>
<path d="M197.247 410.943H180.809V427.382H197.247V410.943Z" fill="white"/>
<path d="M213.686 410.943H197.247V427.382H213.686V410.943Z" fill="white"/>
<path d="M230.125 410.943H213.686V427.382H230.125V410.943Z" fill="white"/>
<path d="M246.564 410.943H230.125V427.382H246.564V410.943Z" fill="white"/>
<path d="M262.993 410.943H246.554V427.382H262.993V410.943Z" fill="white"/>
<path d="M279.432 410.943H262.993V427.382H279.432V410.943Z" fill="white"/>
<path d="M295.871 410.943H279.432V427.382H295.871V410.943Z" fill="white"/>
<path d="M443.812 410.943L427.373 410.944V427.382H443.812V410.943Z" fill="white"/>
<path d="M460.251 410.943H443.812V427.382H460.251V410.943Z" fill="white"/>
<path d="M476.69 410.943H460.251V427.382H476.69V410.943Z" fill="white"/>
<path d="M493.129 410.943H476.69V427.382H493.129V410.943Z" fill="white"/>
<path d="M509.558 410.944H493.119V427.382H509.558V410.944Z" fill="white"/>
<path d="M525.997 410.943L509.558 410.944V427.382H525.997V410.943Z" fill="white"/>
<path d="M558.875 410.944H542.436V427.382H558.875V410.944Z" fill="white"/>
<path d="M16.439 427.382H0V443.822H16.439V427.382Z" fill="white"/>
<path d="M164.37 427.383H147.931V443.822H164.37V427.383Z" fill="white"/>
<path d="M180.809 427.382L164.37 427.383V443.822H180.809L180.809 427.382Z" fill="white"/>
<path d="M295.871 427.382H279.432V443.822H295.871V427.382Z" fill="white"/>
<path d="M312.31 427.383L295.871 427.382V443.822H312.31V427.383Z" fill="white"/>
<path d="M525.997 427.382H509.558V443.822H525.997V427.382Z" fill="white"/>
<path d="M558.875 427.382H542.436V443.822H558.875V427.382Z" fill="white"/>
<path d="M16.439 443.812H0V460.25H16.439V443.812Z" fill="white"/>
<path d="M164.37 443.812H147.931V460.25H164.37V443.812Z" fill="white"/>
<path d="M328.749 443.812H312.31V460.25H328.749V443.812Z" fill="white"/>
<path d="M525.997 443.812H509.558V460.25H525.997V443.812Z" fill="white"/>
<path d="M542.436 443.812H525.997V460.25H542.436V443.812Z" fill="white"/>
<path d="M558.875 443.812H542.436V460.25H558.875V443.812Z" fill="white"/>
<path d="M16.439 460.25H0V476.69H16.439V460.25Z" fill="white"/>
<path d="M328.749 460.25H312.31V476.69H328.749V460.25Z" fill="white"/>
<path d="M345.188 460.251L328.749 460.25V476.69H345.188V460.251Z" fill="white"/>
<path d="M558.875 460.25H542.436V476.69H558.875V460.25Z" fill="white"/>
<path d="M575.314 460.251L558.875 460.25V476.69H575.314V460.251Z" fill="white"/>
<path d="M32.8679 476.689H16.429V493.128H32.8679V476.689Z" fill="white"/>
<path d="M345.188 476.69H328.749V493.128H345.188V476.69Z" fill="white"/>
<path d="M361.627 476.689L345.188 476.69V493.128H361.627V476.689Z" fill="white"/>
<path d="M378.056 476.689H361.617V493.128H378.056V476.689Z" fill="white"/>
<path d="M394.495 476.689H378.056V493.128H394.495V476.689Z" fill="white"/>
<path d="M410.934 476.689H394.495V493.128H410.934V476.689Z" fill="white"/>
<path d="M427.373 476.689H410.934V493.128H427.373V476.689Z" fill="white"/>
<path d="M575.314 476.69H558.875V493.128H575.314V476.69Z" fill="white"/>
<path d="M32.8679 493.128H16.429V509.568H32.8679V493.128Z" fill="white"/>
<path d="M378.056 493.128H361.617V509.568H378.056V493.128Z" fill="white"/>
<path d="M443.812 493.129L427.373 493.128V509.568H443.812V493.129Z" fill="white"/>
<path d="M460.251 493.129H443.812V509.568H460.251V493.129Z" fill="white"/>
<path d="M476.69 493.129H460.251V509.568H476.69V493.129Z" fill="white"/>
<path d="M493.129 493.129H476.69V509.568H493.129V493.129Z" fill="white"/>
<path d="M509.558 493.129H493.119V509.568H509.558V493.129Z" fill="white"/>
<path d="M525.997 493.129H509.558V509.568H525.997V493.129Z" fill="white"/>
<path d="M542.436 493.129H525.997V509.568H542.436V493.129Z" fill="white"/>
<path d="M558.875 493.128L542.436 493.129V509.568H558.875V493.128Z" fill="white"/>
<path d="M32.8679 509.568H16.429V526.006H32.8679V509.568Z" fill="white"/>
<path d="M378.056 509.568H361.617V526.006H378.056V509.568Z" fill="white"/>
<path d="M476.69 509.568H460.251L460.251 526.006H476.69V509.568Z" fill="white"/>
<path d="M525.997 509.568H509.558V526.006H525.997V509.568Z" fill="white"/>
<path d="M542.436 509.568H525.997V526.006H542.436V509.568Z" fill="white"/>
<path d="M32.8679 526.006H16.429V542.446H32.8679V526.006Z" fill="white"/>
<path d="M361.627 526.007H345.188V542.446H361.627V526.007Z" fill="white"/>
<path d="M378.056 526.006H361.617V542.446H378.056V526.006Z" fill="white"/>
<path d="M476.69 526.006H460.251V542.446H476.69V526.006Z" fill="white"/>
<path d="M525.997 526.006H509.558V542.446H525.997V526.006Z" fill="white"/>
<path d="M49.3069 542.445L32.8679 542.446L32.8679 558.884H49.3069V542.445Z" fill="white"/>
<path d="M65.7458 542.445H49.3069V558.884H65.7458V542.445Z" fill="white"/>
<path d="M361.627 542.446H345.188V558.884H361.627V542.446Z" fill="white"/>
<path d="M460.251 542.446L443.812 542.445V558.884H460.251L460.251 542.446Z" fill="white"/>
<path d="M509.558 542.446L493.119 542.445V558.884H509.558V542.446Z" fill="white"/>
<path d="M525.997 542.446H509.558V558.884H525.997V542.446Z" fill="white"/>
<path d="M82.1848 558.874H65.7458V575.313H82.1848V558.874Z" fill="white"/>
<path d="M361.627 558.874H345.188V575.313H361.627V558.874Z" fill="white"/>
<path d="M378.056 558.874H361.617V575.313H378.056V558.874Z" fill="white"/>
<path d="M394.495 558.874H378.056V575.313H394.495V558.874Z" fill="white"/>
<path d="M460.251 558.874H443.812V575.313H460.251V558.874Z" fill="white"/>
<path d="M509.558 558.874H493.119V575.313H509.558V558.874Z" fill="white"/>
<path d="M98.6237 575.313L82.1848 575.313V591.752H98.6237V575.313Z" fill="white"/>
<path d="M115.063 575.313H98.6237V591.752H115.063V575.313Z" fill="white"/>
<path d="M131.502 575.313H115.063V591.752H131.502V575.313Z" fill="white"/>
<path d="M147.931 575.313H131.492V591.752H147.931V575.313Z" fill="white"/>
<path d="M164.37 575.313H147.931V591.752H164.37V575.313Z" fill="white"/>
<path d="M394.495 575.313H378.056L378.056 591.752H394.495V575.313Z" fill="white"/>
<path d="M410.934 575.313L394.495 575.313V591.752H410.934V575.313Z" fill="white"/>
<path d="M460.251 575.313H443.812V591.752H460.251V575.313Z" fill="white"/>
<path d="M509.558 575.313H493.119V591.752H509.558V575.313Z" fill="white"/>
<path d="M180.809 591.752L164.37 591.752V608.191H180.809V591.752Z" fill="white"/>
<path d="M197.247 591.752H180.809V608.191H197.247V591.752Z" fill="white"/>
<path d="M213.686 591.752H197.247V608.191H213.686V591.752Z" fill="white"/>
<path d="M230.125 591.752H213.686V608.191H230.125V591.752Z" fill="white"/>
<path d="M246.564 591.752H230.125V608.191H246.564V591.752Z" fill="white"/>
<path d="M410.934 591.752H394.495V608.191H410.934V591.752Z" fill="white"/>
<path d="M476.69 591.752L460.251 591.752L460.251 608.191H476.69V591.752Z" fill="white"/>
<path d="M493.129 591.752H476.69V608.191H493.129V591.752Z" fill="white"/>
<path d="M262.993 608.191H246.554V624.63H262.993V608.191Z" fill="white"/>
<path d="M279.432 608.191H262.993V624.63H279.432V608.191Z" fill="white"/>
<path d="M295.871 608.191H279.432V624.63H295.871V608.191Z" fill="white"/>
<path d="M410.934 608.191H394.495V624.63H410.934V608.191Z" fill="white"/>
<path d="M312.31 624.63L295.871 624.63V641.069H312.31V624.63Z" fill="white"/>
<path d="M328.749 624.63H312.31V641.069H328.749V624.63Z" fill="white"/>
<path d="M345.188 624.63H328.749V641.069H345.188V624.63Z" fill="white"/>
<path d="M361.627 624.63H345.188V641.069H361.627V624.63Z" fill="white"/>
<path d="M378.056 624.63H361.617V641.069H378.056V624.63Z" fill="white"/>
<path d="M394.495 624.63L378.056 624.63V641.069H394.495V624.63Z" fill="white"/>
</svg>
