<svg xmlns="http://www.w3.org/2000/svg" viewBox="0 0 266 56" width="266" height="56" fill="#e6edf3" font-family="-apple-system,BlinkMacSystemFont,'Segoe UI',Helvetica,Arial,sans-serif"><g shape-rendering="crispEdges" transform="translate(0,1) scale(1.35)"><rect x="9" y="0" width="6" height="1"/><rect x="26" y="0" width="7" height="1"/><rect x="7" y="1" width="2" height="1"/><rect x="15" y="1" width="1" height="1"/><rect x="19" y="1" width="4" height="1"/><rect x="25" y="1" width="1" height="1"/><rect x="33" y="1" width="1" height="1"/><rect x="7" y="2" width="1" height="1"/><rect x="11" y="2" width="2" height="1"/><rect x="16" y="2" width="3" height="1"/><rect x="23" y="2" width="2" height="1"/><rect x="28" y="2" width="2" height="1"/><rect x="33" y="2" width="1" height="1"/><rect x="7" y="3" width="1" height="1"/><rect x="9" y="3" width="2" height="1"/><rect x="13" y="3" width="1" height="1"/><rect x="27" y="3" width="1" height="1"/><rect x="30" y="3" width="2" height="1"/><rect x="34" y="3" width="1" height="1"/><rect x="6" y="4" width="1" height="1"/><rect x="9" y="4" width="1" height="1"/><rect x="31" y="4" width="1" height="1"/><rect x="34" y="4" width="1" height="1"/><rect x="6" y="5" width="1" height="1"/><rect x="9" y="5" width="1" height="1"/><rect x="31" y="5" width="1" height="1"/><rect x="34" y="5" width="1" height="1"/><rect x="6" y="6" width="1" height="1"/><rect x="9" y="6" width="1" height="1"/><rect x="31" y="6" width="1" height="1"/><rect x="34" y="6" width="1" height="1"/><rect x="6" y="7" width="2" height="1"/><rect x="9" y="7" width="1" height="1"/><rect x="31" y="7" width="1" height="1"/><rect x="34" y="7" width="1" height="1"/><rect x="10" y="8" width="1" height="1"/><rect x="30" y="8" width="1" height="1"/><rect x="33" y="8" width="2" height="1"/><rect x="7" y="9" width="2" height="1"/><rect x="15" y="9" width="2" height="1"/><rect x="24" y="9" width="2" height="1"/><rect x="33" y="9" width="1" height="1"/><rect x="8" y="10" width="2" height="1"/><rect x="15" y="10" width="2" height="1"/><rect x="19" y="10" width="3" height="1"/><rect x="24" y="10" width="2" height="1"/><rect x="31" y="10" width="2" height="1"/><rect x="10" y="11" width="2" height="1"/><rect x="18" y="11" width="1" height="1"/><rect x="22" y="11" width="1" height="1"/><rect x="29" y="11" width="3" height="1"/><rect x="12" y="12" width="1" height="1"/><rect x="18" y="12" width="1" height="1"/><rect x="22" y="12" width="1" height="1"/><rect x="29" y="12" width="1" height="1"/><rect x="12" y="13" width="1" height="1"/><rect x="18" y="13" width="1" height="1"/><rect x="22" y="13" width="1" height="1"/><rect x="29" y="13" width="1" height="1"/><rect x="10" y="14" width="2" height="1"/><rect x="14" y="14" width="1" height="1"/><rect x="18" y="14" width="2" height="1"/><rect x="21" y="14" width="2" height="1"/><rect x="28" y="14" width="1" height="1"/><rect x="33" y="14" width="3" height="1"/><rect x="9" y="15" width="1" height="1"/><rect x="13" y="15" width="1" height="1"/><rect x="19" y="15" width="3" height="1"/><rect x="28" y="15" width="1" height="1"/><rect x="33" y="15" width="1" height="1"/><rect x="35" y="15" width="1" height="1"/><rect x="8" y="16" width="1" height="1"/><rect x="13" y="16" width="2" height="1"/><rect x="27" y="16" width="1" height="1"/><rect x="32" y="16" width="1" height="1"/><rect x="35" y="16" width="1" height="1"/><rect x="7" y="17" width="1" height="1"/><rect x="15" y="17" width="1" height="1"/><rect x="26" y="17" width="1" height="1"/><rect x="32" y="17" width="1" height="1"/><rect x="35" y="17" width="1" height="1"/><rect x="6" y="18" width="1" height="1"/><rect x="16" y="18" width="3" height="1"/><rect x="23" y="18" width="3" height="1"/><rect x="32" y="18" width="1" height="1"/><rect x="35" y="18" width="1" height="1"/><rect x="5" y="19" width="1" height="1"/><rect x="18" y="19" width="7" height="1"/><rect x="31" y="19" width="1" height="1"/><rect x="34" y="19" width="1" height="1"/><rect x="4" y="20" width="1" height="1"/><rect x="22" y="20" width="1" height="1"/><rect x="24" y="20" width="2" height="1"/><rect x="31" y="20" width="1" height="1"/><rect x="34" y="20" width="1" height="1"/><rect x="3" y="21" width="1" height="1"/><rect x="22" y="21" width="1" height="1"/><rect x="25" y="21" width="3" height="1"/><rect x="30" y="21" width="2" height="1"/><rect x="34" y="21" width="1" height="1"/><rect x="2" y="22" width="1" height="1"/><rect x="23" y="22" width="1" height="1"/><rect x="27" y="22" width="4" height="1"/><rect x="34" y="22" width="1" height="1"/><rect x="1" y="23" width="1" height="1"/><rect x="23" y="23" width="2" height="1"/><rect x="30" y="23" width="1" height="1"/><rect x="34" y="23" width="1" height="1"/><rect x="1" y="24" width="1" height="1"/><rect x="25" y="24" width="1" height="1"/><rect x="30" y="24" width="1" height="1"/><rect x="33" y="24" width="2" height="1"/><rect x="0" y="25" width="1" height="1"/><rect x="11" y="25" width="7" height="1"/><rect x="26" y="25" width="6" height="1"/><rect x="33" y="25" width="1" height="1"/><rect x="0" y="26" width="1" height="1"/><rect x="9" y="26" width="2" height="1"/><rect x="17" y="26" width="2" height="1"/><rect x="31" y="26" width="1" height="1"/><rect x="33" y="26" width="1" height="1"/><rect x="0" y="27" width="1" height="1"/><rect x="9" y="27" width="1" height="1"/><rect x="19" y="27" width="1" height="1"/><rect x="31" y="27" width="3" height="1"/><rect x="0" y="28" width="1" height="1"/><rect x="19" y="28" width="2" height="1"/><rect x="28" y="28" width="1" height="1"/><rect x="33" y="28" width="2" height="1"/><rect x="1" y="29" width="1" height="1"/><rect x="20" y="29" width="6" height="1"/><rect x="34" y="29" width="1" height="1"/><rect x="1" y="30" width="1" height="1"/><rect x="22" y="30" width="1" height="1"/><rect x="26" y="30" width="8" height="1"/><rect x="1" y="31" width="1" height="1"/><rect x="22" y="31" width="1" height="1"/><rect x="31" y="31" width="2" height="1"/><rect x="1" y="32" width="1" height="1"/><rect x="21" y="32" width="2" height="1"/><rect x="28" y="32" width="1" height="1"/><rect x="31" y="32" width="1" height="1"/><rect x="2" y="33" width="2" height="1"/><rect x="21" y="33" width="1" height="1"/><rect x="27" y="33" width="1" height="1"/><rect x="30" y="33" width="2" height="1"/><rect x="4" y="34" width="1" height="1"/><rect x="21" y="34" width="3" height="1"/><rect x="27" y="34" width="1" height="1"/><rect x="30" y="34" width="1" height="1"/><rect x="5" y="35" width="5" height="1"/><rect x="24" y="35" width="1" height="1"/><rect x="27" y="35" width="1" height="1"/><rect x="30" y="35" width="1" height="1"/><rect x="10" y="36" width="5" height="1"/><rect x="24" y="36" width="1" height="1"/><rect x="28" y="36" width="2" height="1"/><rect x="15" y="37" width="3" height="1"/><rect x="24" y="37" width="1" height="1"/><rect x="18" y="38" width="6" height="1"/></g><text x="62" y="29" font-size="22" font-weight="600">hedos</text><text x="63" y="45" font-size="10.0" font-style="italic">ἕδος (hédos) · a seat, an abode, a foundation</text></svg>
